<?xml version="1.0" encoding="UTF-8" standalone="no"?>
<svg
   class="svg-icon"
   style="width: 1em; height: 1em;vertical-align: middle;fill: currentColor;overflow: hidden;"
   viewBox="0 0 1024 1024"
   version="1.1"
   id="svg4"
   sodipodi:docname="drag-21.svg"
   inkscape:version="1.1.2 (0a00cf5339, 2022-02-04)"
   xmlns:inkscape="http://www.inkscape.org/namespaces/inkscape"
   xmlns:sodipodi="http://sodipodi.sourceforge.net/DTD/sodipodi-0.dtd"
   xmlns="http://www.w3.org/2000/svg"
   xmlns:svg="http://www.w3.org/2000/svg">
  <defs
     id="defs8" />
  <sodipodi:namedview
     id="namedview6"
     pagecolor="#ffffff"
     bordercolor="#666666"
     borderopacity="1.0"
     inkscape:pageshadow="2"
     inkscape:pageopacity="0.0"
     inkscape:pagecheckerboard="0"
     showgrid="false"
     inkscape:zoom="0.62109375"
     inkscape:cx="511.19497"
     inkscape:cy="511.19497"
     inkscape:window-width="3380"
     inkscape:window-height="1414"
     inkscape:window-x="60"
     inkscape:window-y="0"
     inkscape:window-maximized="1"
     inkscape:current-layer="svg4" />
  <path
     d="M953.088 331.456s0.832-73.856-60.032-77.44c-31.872-1.856-38.848 16.64-50.88 70.4l-34.24 94.848 24.704-179.84c6.72-58.176-25.152-92.288-68.928-97.152-43.84-4.8-81.536 17.344-89.664 79.744l-28.096 176.704-0.128-233.536c-3.776-49.344-32.448-86.72-80.512-89.088-48.128-2.368-87.04 32.576-91.392 80.576l-1.664 236.608-70.912-220.096c-21.824-51.264-62.976-69.376-106.56-51.968s-57.792 63.232-47.36 110.4l87.232 332.48-110.208-113.472c-28.8-31.616-80.64-46.464-118.656-18.944-37.952 27.52-46.4 74.496-30.208 116.864 0 0 5.12 19.072 62.528 91.648 60.672 76.672 211.264 218.048 236.672 307.84l441.92 0.064s27.008-92.288 72.448-209.088c50.496-130.112 76.672-322.432 63.936-407.552z"
     id="path2"
     style="fill:#ffffff" />
</svg>
