<svg class="svg-icon" style="width: 1em; height: 1em;vertical-align: middle;fill: currentColor;overflow: hidden;" viewBox="0 0 1024 1024" version="1.1" xmlns="http://www.w3.org/2000/svg"><path d="M298.666667 810.666667v-85.333334h85.333333v85.333334H298.666667m170.666666 0v-85.333334h85.333334v85.333334h-85.333334m170.666667 0v-85.333334h85.333333v85.333334h-85.333333m-341.333333-170.666667v-85.333333h85.333333v85.333333H298.666667m170.666666 0v-85.333333h85.333334v85.333333h-85.333334m170.666667 0v-85.333333h85.333333v85.333333h-85.333333m-341.333333-170.666667V384h85.333333v85.333333H298.666667m170.666666 0V384h85.333334v85.333333h-85.333334m170.666667 0V384h85.333333v85.333333h-85.333333M298.666667 298.666667V213.333333h85.333333v85.333334H298.666667m170.666666 0V213.333333h85.333334v85.333334h-85.333334m170.666667 0V213.333333h85.333333v85.333334h-85.333333z" fill="" /></svg>